{
  "accessors": [
    {
      "bufferView": 2,
      "componentType": 5126,
      "count": 65532,
      "max": [
        35.213848114013672,
        42.646236419677734,
        38.699798583984375
      ],
      "min": [
        -47.053310394287109,
        -44.71307373046875,
        -16.427978515625
      ],
      "type": "VEC3"
    },
    {
      "bufferView": 2,
      "byteOffset": 786384,
      "componentType": 5126,
      "count": 65532,
      "max": [
        0.9999995231628418,
        0.99997854232788086,
        0.99995815753936768
      ],
      "min": [
        -0.99997317790985107,
        -0.99999427795410156,
        -0.99999463558197021
      ],
      "type": "VEC3"
    },
    {
      "bufferView": 1,
      "componentType": 5126,
      "count": 65532,
      "max": [
        1,
        0.99896186590194702
      ],
      "min": [
        0,
        0
      ],
      "type": "VEC2"
    },
    {
      "bufferView": 0,
      "componentType": 5125,
      "count": 296442,
      "max": [
        65531
      ],
      "min": [
        0
      ],
      "type": "SCALAR"
    },
    {
      "bufferView": 2,
      "byteOffset": 1572768,
      "componentType": 5126,
      "count": 23166,
      "max": [
        35.207424163818359,
        42.646236419677734,
        38.699798583984375
      ],
      "min": [
        -47.053310394287109,
        -33.627170562744141,
        -16.313327789306641
      ],
      "type": "VEC3"
    },
    {
      "bufferView": 2,
      "byteOffset": 1850760,
      "componentType": 5126,
      "count": 23166,
      "max": [
        0.99999809265136719,
        0.9999387264251709,
        0.99995815753936768
      ],
      "min": [
        -0.99573749303817749,
        -0.99999773502349854,
        -0.99993813037872314
      ],
      "type": "VEC3"
    },
    {
      "bufferView": 1,
      "byteOffset": 524256,
      "componentType": 5126,
      "count": 23166,
      "max": [
        0.99766921997070312,
        1
      ],
      "min": [
        0,
        0
      ],
      "type": "VEC2"
    },
    {
      "bufferView": 0,
      "byteOffset": 1185768,
      "componentType": 5125,
      "count": 96906,
      "max": [
        23165
      ],
      "min": [
        0
      ],
      "type": "SCALAR"
    },
    {
      "bufferView": 2,
      "byteOffset": 2128752,
      "componentType": 5126,
      "count": 22117,
      "max": [
        200.01443481445312,
        201.005126953125,
        281.40814208984375
      ],
      "min": [
        -199.98558044433594,
        -198.99484252929688,
        -108.59180450439453
      ],
      "type": "VEC3"
    },
    {
      "bufferView": 2,
      "byteOffset": 2394156,
      "componentType": 5126,
      "count": 22117,
      "max": [
        0.99999427795410156,
        0.99999427795410156,
        0.99526143074035645
      ],
      "min": [
        -0.99999427795410156,
        -0.99999427795410156,
        -0.99999892711639404
      ],
      "type": "VEC3"
    },
    {
      "bufferView": 1,
      "byteOffset": 709584,
      "componentType": 5126,
      "count": 22117,
      "max": [
        0,
        0
      ],
      "min": [
        0,
        0
      ],
      "type": "VEC2"
    },
    {
      "bufferView": 0,
      "byteOffset": 1573392,
      "componentType": 5125,
      "count": 132483,
      "max": [
        22116
      ],
      "min": [
        0
      ],
      "type": "SCALAR"
    }
  ],
  "asset": {
    "extras": {
      "author": "YouniqueĪdeaStudio (https://sketchfab.com/sinnervoncrawsz)",
      "license": "CC-BY-4.0 (http://creativecommons.org/licenses/by/4.0/)",
      "source": "https://sketchfab.com/3d-models/simple-pot-and-plant-d489a069b49c4451a0fa17130fba4c28",
      "title": "simple pot and plant"
    },
    "generator": "Sketchfab-10.15.0",
    "version": "2.0"
  },
  "bufferViews": [
    {
      "buffer": 0,
      "byteLength": 2103324,
      "byteOffset": 0,
      "name": "floatBufferViews",
      "target": 34963
    },
    {
      "buffer": 0,
      "byteLength": 886520,
      "byteOffset": 2103324,
      "byteStride": 8,
      "name": "floatBufferViews",
      "target": 34962
    },
    {
      "buffer": 0,
      "byteLength": 2659560,
      "byteOffset": 2989844,
      "byteStride": 12,
      "name": "floatBufferViews",
      "target": 34962
    }
  ],
  "buffers": [
    {
      "byteLength": 5649404,
      "uri": "scene.bin"
    }
  ],
  "materials": [
    {
      "doubleSided": true,
      "name": "POT__0",
      "pbrMetallicRoughness": {
        "baseColorFactor": [
          0.44748677066878129,
          0.4236054442314211,
          0.4236054442314211,
          1
        ],
        "metallicFactor": 0,
        "roughnessFactor": 0
      }
    },
    {
      "doubleSided": true,
      "name": "Material.003",
      "pbrMetallicRoughness": {
        "baseColorFactor": [
          0.015693131133742606,
          0.13250822156020342,
          0.0048730150468306276,
          1
        ],
        "metallicFactor": 0,
        "roughnessFactor": 0.28796014948244852
      }
    }
  ],
  "meshes": [
    {
      "name": "planta join.001_Material.003_0",
      "primitives": [
        {
          "attributes": {
            "NORMAL": 1,
            "POSITION": 0,
            "TEXCOORD_0": 2
          },
          "indices": 3,
          "material": 1,
          "mode": 4
        }
      ]
    },
    {
      "name": "planta join.001_Material.003_0",
      "primitives": [
        {
          "attributes": {
            "NORMAL": 5,
            "POSITION": 4,
            "TEXCOORD_0": 6
          },
          "indices": 7,
          "material": 1,
          "mode": 4
        }
      ]
    },
    {
      "name": "POT__0",
      "primitives": [
        {
          "attributes": {
            "NORMAL": 9,
            "POSITION": 8,
            "TEXCOORD_0": 10
          },
          "indices": 11,
          "material": 0,
          "mode": 4
        }
      ]
    }
  ],
  "nodes": [
    {
      "children": [
        1
      ],
      "name": "RootNode (gltf orientation matrix)",
      "rotation": [
        -0.70710678118654746,
        -0,
        -0,
        0.70710678118654757
      ]
    },
    {
      "children": [
        2
      ],
      "matrix": [
        1.2513598903751699e-06,
        0,
        0,
        0,
        0,
        1.2513598903751699e-06,
        0,
        0,
        0,
        0,
        1.2513598903751699e-06,
        0,
        -2499.83203125,
        -65.783714294433594,
        -8744.5517578125,
        1
      ],
      "name": "RootNode (model correction matrix)"
    },
    {
      "children": [
        3
      ],
      "matrix": [
        1,
        0,
        0,
        0,
        0,
        0,
        1,
        0,
        0,
        -1,
        0,
        0,
        0,
        0,
        0,
        1
      ],
      "name": "156fa8393dd04ab1abec78ecf19411d8.fbx"
    },
    {
      "children": [
        4,
        7
      ],
      "name": "RootNode"
    },
    {
      "children": [
        5,
        6
      ],
      "matrix": [
        1354.6894384459001,
        -329.54084885624872,
        21.363513040969639,
        0,
        4.877120250306608,
        -70.229338963553374,
        -1392.5808556266018,
        0,
        330.19658456225358,
        1353.0364796037993,
        -67.078653802809924,
        0,
        -901.85894775390625,
        37194.125,
        -758.38818359375,
        1
      ],
      "name": "planta join.001"
    },
    {
      "mesh": 0,
      "name": "planta join.001_Material.003_0"
    },
    {
      "mesh": 1,
      "name": "planta join.001_Material.003_0"
    },
    {
      "children": [
        8
      ],
      "matrix": [
        100.00000762939453,
        0,
        0,
        0,
        -0,
        -1.6292069182169283e-05,
        -100.00000762939321,
        0,
        0,
        100.00000762939321,
        -1.6292069182169283e-05,
        0,
        -79.063072204589844,
        10.864930152893066,
        -126.21981048583984,
        1
      ],
      "name": "POT"
    },
    {
      "mesh": 2,
      "name": "POT__0"
    }
  ],
  "scene": 0,
  "scenes": [
    {
      "name": "OSG_Scene",
      "nodes": [
        0
      ]
    }
  ]
}

